<svg width="15" height="15" viewBox="0 0 15 15" fill="none" xmlns="http://www.w3.org/2000/svg">
<mask id="mask0_14_2" style="mask-type:alpha" maskUnits="userSpaceOnUse" x="0" y="0" width="15" height="15">
<rect width="15" height="15" fill="#D9D9D9"/>
</mask>
<g mask="url(#mask0_14_2)">
<path d="M6.875 8.125H8.125V5H6.875V8.125ZM7.5 10C7.67708 10 7.82552 9.9401 7.94531 9.82031C8.0651 9.70052 8.125 9.55208 8.125 9.375C8.125 9.19792 8.0651 9.04948 7.94531 8.92969C7.82552 8.8099 7.67708 8.75 7.5 8.75C7.32292 8.75 7.17448 8.8099 7.05469 8.92969C6.9349 9.04948 6.875 9.19792 6.875 9.375C6.875 9.55208 6.9349 9.70052 7.05469 9.82031C7.17448 9.9401 7.32292 10 7.5 10ZM2.5 11.875V10.625H3.75V6.25C3.75 5.38542 4.01042 4.61719 4.53125 3.94531C5.05208 3.27344 5.72917 2.83333 6.5625 2.625V2.1875C6.5625 1.92708 6.65365 1.70573 6.83594 1.52344C7.01823 1.34115 7.23958 1.25 7.5 1.25C7.76042 1.25 7.98177 1.34115 8.16406 1.52344C8.34635 1.70573 8.4375 1.92708 8.4375 2.1875V2.625C9.27083 2.83333 9.94792 3.27344 10.4688 3.94531C10.9896 4.61719 11.25 5.38542 11.25 6.25V10.625H12.5V11.875H2.5ZM7.5 13.75C7.15625 13.75 6.86198 13.6276 6.61719 13.3828C6.3724 13.138 6.25 12.8438 6.25 12.5H8.75C8.75 12.8438 8.6276 13.138 8.38281 13.3828C8.13802 13.6276 7.84375 13.75 7.5 13.75ZM5 10.625H10V6.25C10 5.5625 9.75521 4.97396 9.26562 4.48438C8.77604 3.99479 8.1875 3.75 7.5 3.75C6.8125 3.75 6.22396 3.99479 5.73438 4.48438C5.24479 4.97396 5 5.5625 5 6.25V10.625Z" fill="#1C1B1F"/>
</g>
</svg>
